<?xml version="1.0" encoding="UTF-8" standalone="no"?>
<!DOCTYPE svg PUBLIC "-//W3C//DTD SVG 1.1//EN"
 "http://www.w3.org/Graphics/SVG/1.1/DTD/svg11.dtd">
<!-- Generated by graphviz version 2.30.1 (20180828.1746)
 -->
<!-- Title: %3 Pages: 1 -->
<svg width="1097pt" height="548pt"
 viewBox="0.00 0.00 1096.96 548.00" xmlns="http://www.w3.org/2000/svg" xmlns:xlink="http://www.w3.org/1999/xlink">
<g id="graph0" class="graph" transform="scale(1 1) rotate(0) translate(4 544)">
<title>%3</title>
<polygon fill="white" stroke="white" points="-4,5 -4,-544 1093.96,-544 1093.96,5 -4,5"/>
<!-- [root] aws_eip.eip1 (expand) -->
<g id="node1" class="node"><title>[root] aws_eip.eip1 (expand)</title>
<polygon fill="none" stroke="black" points="1088.96,-324 1000.96,-324 1000.96,-288 1088.96,-288 1088.96,-324"/>
<text text-anchor="middle" x="1044.96" y="-302.3" font-family="Times,serif" font-size="14.00">aws_eip.eip1</text>
</g>
<!-- [root] provider[&quot;registry.terraform.io/hashicorp/aws&quot;] -->
<g id="node12" class="node"><title>[root] provider[&quot;registry.terraform.io/hashicorp/aws&quot;]</title>
<polygon fill="none" stroke="black" points="761.962,-108 509.809,-90 761.962,-72 1014.12,-90 761.962,-108"/>
<text text-anchor="middle" x="761.962" y="-86.3" font-family="Times,serif" font-size="14.00">provider[&quot;registry.terraform.io/hashicorp/aws&quot;]</text>
</g>
<!-- [root] aws_eip.eip1 (expand)&#45;&gt;[root] provider[&quot;registry.terraform.io/hashicorp/aws&quot;] -->
<g id="edge1" class="edge"><title>[root] aws_eip.eip1 (expand)&#45;&gt;[root] provider[&quot;registry.terraform.io/hashicorp/aws&quot;]</title>
<path fill="none" stroke="black" d="M1035.06,-287.975C1023.28,-268.767 1002.14,-237.42 977.962,-216 925.022,-169.092 851.762,-131.177 805.627,-109.862"/>
<polygon fill="black" stroke="black" points="807.045,-106.662 796.494,-105.695 804.139,-113.03 807.045,-106.662"/>
</g>
<!-- [root] var.env -->
<g id="node18" class="node"><title>[root] var.env</title>
<polygon fill="none" stroke="black" points="1083.21,-108 1032.71,-108 1032.71,-72 1089.21,-72 1089.21,-102 1083.21,-108"/>
<polyline fill="none" stroke="black" points="1083.21,-108 1083.21,-102 "/>
<polyline fill="none" stroke="black" points="1089.21,-102 1083.21,-102 "/>
<text text-anchor="middle" x="1060.96" y="-86.3" font-family="Times,serif" font-size="14.00">var.env</text>
</g>
<!-- [root] aws_eip.eip1 (expand)&#45;&gt;[root] var.env -->
<g id="edge2" class="edge"><title>[root] aws_eip.eip1 (expand)&#45;&gt;[root] var.env</title>
<path fill="none" stroke="black" d="M1046.24,-287.849C1049.01,-250.832 1055.57,-163.181 1058.91,-118.386"/>
<polygon fill="black" stroke="black" points="1062.42,-118.466 1059.67,-108.232 1055.44,-117.944 1062.42,-118.466"/>
</g>
<!-- [root] aws_instance.general&#45;purpose (expand) -->
<g id="node2" class="node"><title>[root] aws_instance.general&#45;purpose (expand)</title>
<polygon fill="none" stroke="black" points="554.212,-396 375.712,-396 375.712,-360 554.212,-360 554.212,-396"/>
<text text-anchor="middle" x="464.962" y="-374.3" font-family="Times,serif" font-size="14.00">aws_instance.general&#45;purpose</text>
</g>
<!-- [root] aws_security_group.ssh_all (expand) -->
<g id="node8" class="node"><title>[root] aws_security_group.ssh_all (expand)</title>
<polygon fill="none" stroke="black" points="692.212,-324 525.712,-324 525.712,-288 692.212,-288 692.212,-324"/>
<text text-anchor="middle" x="608.962" y="-302.3" font-family="Times,serif" font-size="14.00">aws_security_group.ssh_all</text>
</g>
<!-- [root] aws_instance.general&#45;purpose (expand)&#45;&gt;[root] aws_security_group.ssh_all (expand) -->
<g id="edge3" class="edge"><title>[root] aws_instance.general&#45;purpose (expand)&#45;&gt;[root] aws_security_group.ssh_all (expand)</title>
<path fill="none" stroke="black" d="M500.189,-359.876C519.54,-350.469 543.735,-338.708 564.39,-328.667"/>
<polygon fill="black" stroke="black" points="566.137,-331.71 573.601,-324.19 563.077,-325.414 566.137,-331.71"/>
</g>
<!-- [root] aws_subnet.public1 (expand) -->
<g id="node10" class="node"><title>[root] aws_subnet.public1 (expand)</title>
<polygon fill="none" stroke="black" points="834.962,-324 710.962,-324 710.962,-288 834.962,-288 834.962,-324"/>
<text text-anchor="middle" x="772.962" y="-302.3" font-family="Times,serif" font-size="14.00">aws_subnet.public1</text>
</g>
<!-- [root] aws_instance.general&#45;purpose (expand)&#45;&gt;[root] aws_subnet.public1 (expand) -->
<g id="edge4" class="edge"><title>[root] aws_instance.general&#45;purpose (expand)&#45;&gt;[root] aws_subnet.public1 (expand)</title>
<path fill="none" stroke="black" d="M541.803,-359.967C587.969,-349.677 647.867,-336.23 700.962,-324 701.064,-323.977 701.166,-323.953 701.268,-323.93"/>
<polygon fill="black" stroke="black" points="701.967,-327.36 710.92,-321.694 700.388,-320.541 701.967,-327.36"/>
</g>
<!-- [root] var.ami_id -->
<g id="node14" class="node"><title>[root] var.ami_id</title>
<polygon fill="none" stroke="black" points="333.962,-324 263.962,-324 263.962,-288 339.962,-288 339.962,-318 333.962,-324"/>
<polyline fill="none" stroke="black" points="333.962,-324 333.962,-318 "/>
<polyline fill="none" stroke="black" points="339.962,-318 333.962,-318 "/>
<text text-anchor="middle" x="301.962" y="-302.3" font-family="Times,serif" font-size="14.00">var.ami_id</text>
</g>
<!-- [root] aws_instance.general&#45;purpose (expand)&#45;&gt;[root] var.ami_id -->
<g id="edge5" class="edge"><title>[root] aws_instance.general&#45;purpose (expand)&#45;&gt;[root] var.ami_id</title>
<path fill="none" stroke="black" d="M425.088,-359.876C402.207,-350.05 373.342,-337.654 349.312,-327.334"/>
<polygon fill="black" stroke="black" points="350.593,-324.075 340.023,-323.345 347.831,-330.507 350.593,-324.075"/>
</g>
<!-- [root] var.ami_key_pair_name -->
<g id="node15" class="node"><title>[root] var.ami_key_pair_name</title>
<polygon fill="none" stroke="black" points="501.212,-324 358.712,-324 358.712,-288 507.212,-288 507.212,-318 501.212,-324"/>
<polyline fill="none" stroke="black" points="501.212,-324 501.212,-318 "/>
<polyline fill="none" stroke="black" points="507.212,-318 501.212,-318 "/>
<text text-anchor="middle" x="432.962" y="-302.3" font-family="Times,serif" font-size="14.00">var.ami_key_pair_name</text>
</g>
<!-- [root] aws_instance.general&#45;purpose (expand)&#45;&gt;[root] var.ami_key_pair_name -->
<g id="edge6" class="edge"><title>[root] aws_instance.general&#45;purpose (expand)&#45;&gt;[root] var.ami_key_pair_name</title>
<path fill="none" stroke="black" d="M457.052,-359.697C453.41,-351.728 449.008,-342.1 444.969,-333.264"/>
<polygon fill="black" stroke="black" points="448.122,-331.744 440.781,-324.104 441.756,-334.654 448.122,-331.744"/>
</g>
<!-- [root] var.ami_name -->
<g id="node16" class="node"><title>[root] var.ami_name</title>
<polygon fill="none" stroke="black" points="109.212,-324 20.7123,-324 20.7123,-288 115.212,-288 115.212,-318 109.212,-324"/>
<polyline fill="none" stroke="black" points="109.212,-324 109.212,-318 "/>
<polyline fill="none" stroke="black" points="115.212,-318 109.212,-318 "/>
<text text-anchor="middle" x="67.9623" y="-302.3" font-family="Times,serif" font-size="14.00">var.ami_name</text>
</g>
<!-- [root] aws_instance.general&#45;purpose (expand)&#45;&gt;[root] var.ami_name -->
<g id="edge7" class="edge"><title>[root] aws_instance.general&#45;purpose (expand)&#45;&gt;[root] var.ami_name</title>
<path fill="none" stroke="black" d="M375.664,-361.574C372.39,-361.038 369.148,-360.511 365.962,-360 262.164,-343.338 232.403,-347.279 125.326,-323.894"/>
<polygon fill="black" stroke="black" points="125.936,-320.444 115.416,-321.7 124.423,-327.279 125.936,-320.444"/>
</g>
<!-- [root] var.instance_type -->
<g id="node19" class="node"><title>[root] var.instance_type</title>
<polygon fill="none" stroke="black" points="239.962,-324 133.962,-324 133.962,-288 245.962,-288 245.962,-318 239.962,-324"/>
<polyline fill="none" stroke="black" points="239.962,-324 239.962,-318 "/>
<polyline fill="none" stroke="black" points="245.962,-318 239.962,-318 "/>
<text text-anchor="middle" x="189.962" y="-302.3" font-family="Times,serif" font-size="14.00">var.instance_type</text>
</g>
<!-- [root] aws_instance.general&#45;purpose (expand)&#45;&gt;[root] var.instance_type -->
<g id="edge8" class="edge"><title>[root] aws_instance.general&#45;purpose (expand)&#45;&gt;[root] var.instance_type</title>
<path fill="none" stroke="black" d="M396.83,-359.962C358.129,-350.247 308.524,-337.734 255.844,-324.217"/>
<polygon fill="black" stroke="black" points="256.531,-320.78 245.974,-321.682 254.789,-327.56 256.531,-320.78"/>
</g>
<!-- [root] aws_instance.private&#45;instance (expand) -->
<g id="node3" class="node"><title>[root] aws_instance.private&#45;instance (expand)</title>
<polygon fill="none" stroke="black" points="357.212,-396 178.712,-396 178.712,-360 357.212,-360 357.212,-396"/>
<text text-anchor="middle" x="267.962" y="-374.3" font-family="Times,serif" font-size="14.00">aws_instance.private&#45;instance</text>
</g>
<!-- [root] aws_instance.private&#45;instance (expand)&#45;&gt;[root] aws_security_group.ssh_all (expand) -->
<g id="edge9" class="edge"><title>[root] aws_instance.private&#45;instance (expand)&#45;&gt;[root] aws_security_group.ssh_all (expand)</title>
<path fill="none" stroke="black" d="M350.944,-359.966C400.857,-349.72 464.499,-336.655 516.087,-326.065"/>
<polygon fill="black" stroke="black" points="516.812,-329.489 525.904,-324.05 515.405,-322.632 516.812,-329.489"/>
</g>
<!-- [root] aws_subnet.private2 (expand) -->
<g id="node9" class="node"><title>[root] aws_subnet.private2 (expand)</title>
<polygon fill="none" stroke="black" points="315.962,-252 187.962,-252 187.962,-216 315.962,-216 315.962,-252"/>
<text text-anchor="middle" x="251.962" y="-230.3" font-family="Times,serif" font-size="14.00">aws_subnet.private2</text>
</g>
<!-- [root] aws_instance.private&#45;instance (expand)&#45;&gt;[root] aws_subnet.private2 (expand) -->
<g id="edge10" class="edge"><title>[root] aws_instance.private&#45;instance (expand)&#45;&gt;[root] aws_subnet.private2 (expand)</title>
<path fill="none" stroke="black" d="M178.697,-370.404C113.159,-363.488 32.0416,-349.87 10.9623,-324 -37.8873,-264.048 89.9837,-244.48 177.603,-238.093"/>
<polygon fill="black" stroke="black" points="178.07,-241.57 187.808,-237.395 177.592,-234.586 178.07,-241.57"/>
</g>
<!-- [root] aws_instance.private&#45;instance (expand)&#45;&gt;[root] var.ami_id -->
<g id="edge11" class="edge"><title>[root] aws_instance.private&#45;instance (expand)&#45;&gt;[root] var.ami_id</title>
<path fill="none" stroke="black" d="M276.367,-359.697C280.237,-351.728 284.914,-342.1 289.205,-333.264"/>
<polygon fill="black" stroke="black" points="292.434,-334.629 293.654,-324.104 286.137,-331.57 292.434,-334.629"/>
</g>
<!-- [root] aws_instance.private&#45;instance (expand)&#45;&gt;[root] var.ami_key_pair_name -->
<g id="edge12" class="edge"><title>[root] aws_instance.private&#45;instance (expand)&#45;&gt;[root] var.ami_key_pair_name</title>
<path fill="none" stroke="black" d="M308.326,-359.876C330.983,-350.264 359.435,-338.193 383.433,-328.013"/>
<polygon fill="black" stroke="black" points="384.891,-331.196 392.73,-324.068 382.157,-324.752 384.891,-331.196"/>
</g>
<!-- [root] aws_instance.private&#45;instance (expand)&#45;&gt;[root] var.ami_name -->
<g id="edge13" class="edge"><title>[root] aws_instance.private&#45;instance (expand)&#45;&gt;[root] var.ami_name</title>
<path fill="none" stroke="black" d="M219.293,-359.966C190.933,-350.04 155.016,-337.469 125.29,-327.065"/>
<polygon fill="black" stroke="black" points="126.062,-323.627 115.467,-323.627 123.749,-330.234 126.062,-323.627"/>
</g>
<!-- [root] aws_instance.private&#45;instance (expand)&#45;&gt;[root] var.instance_type -->
<g id="edge14" class="edge"><title>[root] aws_instance.private&#45;instance (expand)&#45;&gt;[root] var.instance_type</title>
<path fill="none" stroke="black" d="M248.681,-359.697C239.047,-351.05 227.234,-340.449 216.735,-331.027"/>
<polygon fill="black" stroke="black" points="218.802,-328.179 209.021,-324.104 214.126,-333.388 218.802,-328.179"/>
</g>
<!-- [root] aws_internet_gateway.this (expand) -->
<g id="node4" class="node"><title>[root] aws_internet_gateway.this (expand)</title>
<polygon fill="none" stroke="black" points="969.212,-252 808.712,-252 808.712,-216 969.212,-216 969.212,-252"/>
<text text-anchor="middle" x="888.962" y="-230.3" font-family="Times,serif" font-size="14.00">aws_internet_gateway.this</text>
</g>
<!-- [root] aws_vpc.this (expand) -->
<g id="node11" class="node"><title>[root] aws_vpc.this (expand)</title>
<polygon fill="none" stroke="black" points="805.212,-180 718.712,-180 718.712,-144 805.212,-144 805.212,-180"/>
<text text-anchor="middle" x="761.962" y="-158.3" font-family="Times,serif" font-size="14.00">aws_vpc.this</text>
</g>
<!-- [root] aws_internet_gateway.this (expand)&#45;&gt;[root] aws_vpc.this (expand) -->
<g id="edge15" class="edge"><title>[root] aws_internet_gateway.this (expand)&#45;&gt;[root] aws_vpc.this (expand)</title>
<path fill="none" stroke="black" d="M857.895,-215.876C841.136,-206.639 820.257,-195.131 802.26,-185.212"/>
<polygon fill="black" stroke="black" points="803.597,-181.952 793.149,-180.19 800.218,-188.082 803.597,-181.952"/>
</g>
<!-- [root] aws_nat_gateway.this (expand) -->
<g id="node5" class="node"><title>[root] aws_nat_gateway.this (expand)</title>
<polygon fill="none" stroke="black" points="1015.96,-396 879.962,-396 879.962,-360 1015.96,-360 1015.96,-396"/>
<text text-anchor="middle" x="947.962" y="-374.3" font-family="Times,serif" font-size="14.00">aws_nat_gateway.this</text>
</g>
<!-- [root] aws_nat_gateway.this (expand)&#45;&gt;[root] aws_eip.eip1 (expand) -->
<g id="edge16" class="edge"><title>[root] aws_nat_gateway.this (expand)&#45;&gt;[root] aws_eip.eip1 (expand)</title>
<path fill="none" stroke="black" d="M971.94,-359.697C984.274,-350.796 999.479,-339.823 1012.82,-330.199"/>
<polygon fill="black" stroke="black" points="1015.2,-332.794 1021.26,-324.104 1011.1,-327.118 1015.2,-332.794"/>
</g>
<!-- [root] aws_nat_gateway.this (expand)&#45;&gt;[root] aws_subnet.public1 (expand) -->
<g id="edge17" class="edge"><title>[root] aws_nat_gateway.this (expand)&#45;&gt;[root] aws_subnet.public1 (expand)</title>
<path fill="none" stroke="black" d="M905.152,-359.876C881.016,-350.222 850.679,-338.087 825.156,-327.878"/>
<polygon fill="black" stroke="black" points="826.218,-324.533 815.633,-324.068 823.618,-331.032 826.218,-324.533"/>
</g>
<!-- [root] aws_route_table.igw (expand) -->
<g id="node6" class="node"><title>[root] aws_route_table.igw (expand)</title>
<polygon fill="none" stroke="black" points="982.212,-324 853.712,-324 853.712,-288 982.212,-288 982.212,-324"/>
<text text-anchor="middle" x="917.962" y="-302.3" font-family="Times,serif" font-size="14.00">aws_route_table.igw</text>
</g>
<!-- [root] aws_route_table.igw (expand)&#45;&gt;[root] aws_internet_gateway.this (expand) -->
<g id="edge18" class="edge"><title>[root] aws_route_table.igw (expand)&#45;&gt;[root] aws_internet_gateway.this (expand)</title>
<path fill="none" stroke="black" d="M910.794,-287.697C907.528,-279.813 903.588,-270.304 899.96,-261.546"/>
<polygon fill="black" stroke="black" points="903.109,-260.003 896.048,-252.104 896.642,-262.683 903.109,-260.003"/>
</g>
<!-- [root] aws_route_table_association.public1&#45;igw (expand) -->
<g id="node7" class="node"><title>[root] aws_route_table_association.public1&#45;igw (expand)</title>
<polygon fill="none" stroke="black" points="861.212,-396 620.712,-396 620.712,-360 861.212,-360 861.212,-396"/>
<text text-anchor="middle" x="740.962" y="-374.3" font-family="Times,serif" font-size="14.00">aws_route_table_association.public1&#45;igw</text>
</g>
<!-- [root] aws_route_table_association.public1&#45;igw (expand)&#45;&gt;[root] aws_route_table.igw (expand) -->
<g id="edge19" class="edge"><title>[root] aws_route_table_association.public1&#45;igw (expand)&#45;&gt;[root] aws_route_table.igw (expand)</title>
<path fill="none" stroke="black" d="M784.261,-359.876C808.673,-350.222 839.358,-338.087 865.172,-327.878"/>
<polygon fill="black" stroke="black" points="866.792,-331.001 874.804,-324.068 864.217,-324.491 866.792,-331.001"/>
</g>
<!-- [root] aws_route_table_association.public1&#45;igw (expand)&#45;&gt;[root] aws_subnet.public1 (expand) -->
<g id="edge20" class="edge"><title>[root] aws_route_table_association.public1&#45;igw (expand)&#45;&gt;[root] aws_subnet.public1 (expand)</title>
<path fill="none" stroke="black" d="M748.872,-359.697C752.515,-351.728 756.917,-342.1 760.956,-333.264"/>
<polygon fill="black" stroke="black" points="764.169,-334.654 765.143,-324.104 757.802,-331.744 764.169,-334.654"/>
</g>
<!-- [root] aws_security_group.ssh_all (expand)&#45;&gt;[root] aws_vpc.this (expand) -->
<g id="edge21" class="edge"><title>[root] aws_security_group.ssh_all (expand)&#45;&gt;[root] aws_vpc.this (expand)</title>
<path fill="none" stroke="black" d="M627.418,-287.871C654.528,-262.711 705.23,-215.654 736.058,-187.042"/>
<polygon fill="black" stroke="black" points="738.493,-189.557 743.441,-180.189 733.731,-184.427 738.493,-189.557"/>
</g>
<!-- [root] aws_subnet.private2 (expand)&#45;&gt;[root] aws_vpc.this (expand) -->
<g id="edge22" class="edge"><title>[root] aws_subnet.private2 (expand)&#45;&gt;[root] aws_vpc.this (expand)</title>
<path fill="none" stroke="black" d="M316.038,-224.205C417.739,-210.246 614.245,-183.275 708.709,-170.309"/>
<polygon fill="black" stroke="black" points="709.188,-173.776 718.619,-168.949 708.236,-166.841 709.188,-173.776"/>
</g>
<!-- [root] aws_subnet.public1 (expand)&#45;&gt;[root] aws_vpc.this (expand) -->
<g id="edge23" class="edge"><title>[root] aws_subnet.public1 (expand)&#45;&gt;[root] aws_vpc.this (expand)</title>
<path fill="none" stroke="black" d="M771.635,-287.871C769.761,-263.67 766.317,-219.211 764.084,-190.393"/>
<polygon fill="black" stroke="black" points="767.556,-189.889 763.294,-180.189 760.577,-190.43 767.556,-189.889"/>
</g>
<!-- [root] aws_vpc.this (expand)&#45;&gt;[root] provider[&quot;registry.terraform.io/hashicorp/aws&quot;] -->
<g id="edge24" class="edge"><title>[root] aws_vpc.this (expand)&#45;&gt;[root] provider[&quot;registry.terraform.io/hashicorp/aws&quot;]</title>
<path fill="none" stroke="black" d="M761.962,-143.697C761.962,-135.983 761.962,-126.712 761.962,-118.112"/>
<polygon fill="black" stroke="black" points="765.462,-118.104 761.962,-108.104 758.462,-118.104 765.462,-118.104"/>
</g>
<!-- [root] aws_vpc.this (expand)&#45;&gt;[root] var.env -->
<g id="edge25" class="edge"><title>[root] aws_vpc.this (expand)&#45;&gt;[root] var.env</title>
<path fill="none" stroke="black" d="M805.661,-155.138C858.113,-147.417 948.338,-131.946 1022.96,-108 1023.06,-107.968 1023.16,-107.936 1023.26,-107.904"/>
<polygon fill="black" stroke="black" points="1024.4,-111.215 1032.59,-104.5 1022,-104.639 1024.4,-111.215"/>
</g>
<!-- [root] var.vpc_name -->
<g id="node21" class="node"><title>[root] var.vpc_name</title>
<polygon fill="none" stroke="black" points="484.962,-108 396.962,-108 396.962,-72 490.962,-72 490.962,-102 484.962,-108"/>
<polyline fill="none" stroke="black" points="484.962,-108 484.962,-102 "/>
<polyline fill="none" stroke="black" points="490.962,-102 484.962,-102 "/>
<text text-anchor="middle" x="443.962" y="-86.3" font-family="Times,serif" font-size="14.00">var.vpc_name</text>
</g>
<!-- [root] aws_vpc.this (expand)&#45;&gt;[root] var.vpc_name -->
<g id="edge26" class="edge"><title>[root] aws_vpc.this (expand)&#45;&gt;[root] var.vpc_name</title>
<path fill="none" stroke="black" d="M718.562,-153.528C668.401,-144.603 583.216,-128.561 501.212,-108.199"/>
<polygon fill="black" stroke="black" points="501.781,-104.733 491.23,-105.695 500.078,-111.523 501.781,-104.733"/>
</g>
<!-- [root] var.access_key -->
<g id="node13" class="node"><title>[root] var.access_key</title>
<polygon fill="none" stroke="black" points="687.962,-36 595.962,-36 595.962,-0 693.962,-0 693.962,-30 687.962,-36"/>
<polyline fill="none" stroke="black" points="687.962,-36 687.962,-30 "/>
<polyline fill="none" stroke="black" points="693.962,-30 687.962,-30 "/>
<text text-anchor="middle" x="644.962" y="-14.3" font-family="Times,serif" font-size="14.00">var.access_key</text>
</g>
<!-- [root] provider[&quot;registry.terraform.io/hashicorp/aws&quot;]&#45;&gt;[root] var.access_key -->
<g id="edge35" class="edge"><title>[root] provider[&quot;registry.terraform.io/hashicorp/aws&quot;]&#45;&gt;[root] var.access_key</title>
<path fill="none" stroke="black" d="M736.575,-73.811C720.779,-64.3604 700.18,-52.0364 682.517,-41.4685"/>
<polygon fill="black" stroke="black" points="683.967,-38.2574 673.588,-36.1267 680.373,-44.2644 683.967,-38.2574"/>
</g>
<!-- [root] var.aws_region -->
<g id="node17" class="node"><title>[root] var.aws_region</title>
<polygon fill="none" stroke="black" points="805.962,-36 711.962,-36 711.962,-0 811.962,-0 811.962,-30 805.962,-36"/>
<polyline fill="none" stroke="black" points="805.962,-36 805.962,-30 "/>
<polyline fill="none" stroke="black" points="811.962,-30 805.962,-30 "/>
<text text-anchor="middle" x="761.962" y="-14.3" font-family="Times,serif" font-size="14.00">var.aws_region</text>
</g>
<!-- [root] provider[&quot;registry.terraform.io/hashicorp/aws&quot;]&#45;&gt;[root] var.aws_region -->
<g id="edge36" class="edge"><title>[root] provider[&quot;registry.terraform.io/hashicorp/aws&quot;]&#45;&gt;[root] var.aws_region</title>
<path fill="none" stroke="black" d="M761.962,-71.6966C761.962,-63.9827 761.962,-54.7125 761.962,-46.1124"/>
<polygon fill="black" stroke="black" points="765.462,-46.1043 761.962,-36.1043 758.462,-46.1044 765.462,-46.1043"/>
</g>
<!-- [root] var.secret_key -->
<g id="node20" class="node"><title>[root] var.secret_key</title>
<polygon fill="none" stroke="black" points="919.212,-36 830.712,-36 830.712,-0 925.212,-0 925.212,-30 919.212,-36"/>
<polyline fill="none" stroke="black" points="919.212,-36 919.212,-30 "/>
<polyline fill="none" stroke="black" points="925.212,-30 919.212,-30 "/>
<text text-anchor="middle" x="877.962" y="-14.3" font-family="Times,serif" font-size="14.00">var.secret_key</text>
</g>
<!-- [root] provider[&quot;registry.terraform.io/hashicorp/aws&quot;]&#45;&gt;[root] var.secret_key -->
<g id="edge37" class="edge"><title>[root] provider[&quot;registry.terraform.io/hashicorp/aws&quot;]&#45;&gt;[root] var.secret_key</title>
<path fill="none" stroke="black" d="M787.419,-73.6382C803.094,-64.1793 823.457,-51.891 840.902,-41.3642"/>
<polygon fill="black" stroke="black" points="842.964,-44.2076 849.718,-36.0442 839.347,-38.2142 842.964,-44.2076"/>
</g>
<!-- [root] meta.count&#45;boundary (EachMode fixup) -->
<g id="node22" class="node"><title>[root] meta.count&#45;boundary (EachMode fixup)</title>
<ellipse fill="none" stroke="black" cx="837.962" cy="-450" rx="176.177" ry="18"/>
<text text-anchor="middle" x="837.962" y="-446.3" font-family="Times,serif" font-size="14.00">[root] meta.count&#45;boundary (EachMode fixup)</text>
</g>
<!-- [root] meta.count&#45;boundary (EachMode fixup)&#45;&gt;[root] aws_instance.general&#45;purpose (expand) -->
<g id="edge27" class="edge"><title>[root] meta.count&#45;boundary (EachMode fixup)&#45;&gt;[root] aws_instance.general&#45;purpose (expand)</title>
<path fill="none" stroke="black" d="M757.486,-433.897C700.885,-423.275 624.775,-408.992 564.378,-397.657"/>
<polygon fill="black" stroke="black" points="564.917,-394.197 554.443,-395.793 563.626,-401.077 564.917,-394.197"/>
</g>
<!-- [root] meta.count&#45;boundary (EachMode fixup)&#45;&gt;[root] aws_instance.private&#45;instance (expand) -->
<g id="edge28" class="edge"><title>[root] meta.count&#45;boundary (EachMode fixup)&#45;&gt;[root] aws_instance.private&#45;instance (expand)</title>
<path fill="none" stroke="black" d="M713.977,-437.128C621.144,-427.757 490.803,-413.58 367.397,-396.162"/>
<polygon fill="black" stroke="black" points="367.78,-392.682 357.387,-394.74 366.795,-399.612 367.78,-392.682"/>
</g>
<!-- [root] meta.count&#45;boundary (EachMode fixup)&#45;&gt;[root] aws_nat_gateway.this (expand) -->
<g id="edge29" class="edge"><title>[root] meta.count&#45;boundary (EachMode fixup)&#45;&gt;[root] aws_nat_gateway.this (expand)</title>
<path fill="none" stroke="black" d="M864.59,-432.055C878.941,-422.922 896.841,-411.532 912.372,-401.648"/>
<polygon fill="black" stroke="black" points="914.641,-404.353 921.198,-396.032 910.883,-398.448 914.641,-404.353"/>
</g>
<!-- [root] meta.count&#45;boundary (EachMode fixup)&#45;&gt;[root] aws_route_table_association.public1&#45;igw (expand) -->
<g id="edge30" class="edge"><title>[root] meta.count&#45;boundary (EachMode fixup)&#45;&gt;[root] aws_route_table_association.public1&#45;igw (expand)</title>
<path fill="none" stroke="black" d="M814.481,-432.055C801.945,-423.008 786.337,-411.744 772.731,-401.926"/>
<polygon fill="black" stroke="black" points="774.72,-399.045 764.563,-396.032 770.624,-404.722 774.72,-399.045"/>
</g>
<!-- [root] provider[&quot;registry.terraform.io/hashicorp/aws&quot;] (close) -->
<g id="node23" class="node"><title>[root] provider[&quot;registry.terraform.io/hashicorp/aws&quot;] (close)</title>
<ellipse fill="none" stroke="black" cx="415.962" cy="-450" rx="227.22" ry="18"/>
<text text-anchor="middle" x="415.962" y="-446.3" font-family="Times,serif" font-size="14.00">[root] provider[&quot;registry.terraform.io/hashicorp/aws&quot;] (close)</text>
</g>
<!-- [root] provider[&quot;registry.terraform.io/hashicorp/aws&quot;] (close)&#45;&gt;[root] aws_instance.general&#45;purpose (expand) -->
<g id="edge31" class="edge"><title>[root] provider[&quot;registry.terraform.io/hashicorp/aws&quot;] (close)&#45;&gt;[root] aws_instance.general&#45;purpose (expand)</title>
<path fill="none" stroke="black" d="M428.075,-431.697C433.83,-423.474 440.824,-413.483 447.168,-404.421"/>
<polygon fill="black" stroke="black" points="450.122,-406.304 452.989,-396.104 444.387,-402.29 450.122,-406.304"/>
</g>
<!-- [root] provider[&quot;registry.terraform.io/hashicorp/aws&quot;] (close)&#45;&gt;[root] aws_instance.private&#45;instance (expand) -->
<g id="edge32" class="edge"><title>[root] provider[&quot;registry.terraform.io/hashicorp/aws&quot;] (close)&#45;&gt;[root] aws_instance.private&#45;instance (expand)</title>
<path fill="none" stroke="black" d="M380.136,-432.055C360.015,-422.538 334.709,-410.57 313.228,-400.409"/>
<polygon fill="black" stroke="black" points="314.508,-397.143 303.972,-396.032 311.515,-403.471 314.508,-397.143"/>
</g>
<!-- [root] provider[&quot;registry.terraform.io/hashicorp/aws&quot;] (close)&#45;&gt;[root] aws_nat_gateway.this (expand) -->
<g id="edge33" class="edge"><title>[root] provider[&quot;registry.terraform.io/hashicorp/aws&quot;] (close)&#45;&gt;[root] aws_nat_gateway.this (expand)</title>
<path fill="none" stroke="black" d="M558.587,-435.984C645.65,-427.168 759.364,-414.105 869.583,-395.965"/>
<polygon fill="black" stroke="black" points="870.261,-399.4 879.552,-394.309 869.113,-392.495 870.261,-399.4"/>
</g>
<!-- [root] provider[&quot;registry.terraform.io/hashicorp/aws&quot;] (close)&#45;&gt;[root] aws_route_table_association.public1&#45;igw (expand) -->
<g id="edge34" class="edge"><title>[root] provider[&quot;registry.terraform.io/hashicorp/aws&quot;] (close)&#45;&gt;[root] aws_route_table_association.public1&#45;igw (expand)</title>
<path fill="none" stroke="black" d="M490.524,-432.941C538.576,-422.591 601.308,-409.079 651.966,-398.169"/>
<polygon fill="black" stroke="black" points="652.889,-401.55 661.928,-396.023 651.415,-394.707 652.889,-401.55"/>
</g>
<!-- [root] root -->
<g id="node24" class="node"><title>[root] root</title>
<ellipse fill="none" stroke="black" cx="626.962" cy="-522" rx="47.169" ry="18"/>
<text text-anchor="middle" x="626.962" y="-518.3" font-family="Times,serif" font-size="14.00">[root] root</text>
</g>
<!-- [root] root&#45;&gt;[root] meta.count&#45;boundary (EachMode fixup) -->
<g id="edge38" class="edge"><title>[root] root&#45;&gt;[root] meta.count&#45;boundary (EachMode fixup)</title>
<path fill="none" stroke="black" d="M661.333,-509.597C693.063,-499.071 740.861,-483.214 778.736,-470.648"/>
<polygon fill="black" stroke="black" points="780.244,-473.836 788.634,-467.365 778.04,-467.192 780.244,-473.836"/>
</g>
<!-- [root] root&#45;&gt;[root] provider[&quot;registry.terraform.io/hashicorp/aws&quot;] (close) -->
<g id="edge39" class="edge"><title>[root] root&#45;&gt;[root] provider[&quot;registry.terraform.io/hashicorp/aws&quot;] (close)</title>
<path fill="none" stroke="black" d="M592.592,-509.597C561.076,-499.142 513.709,-483.428 475.957,-470.904"/>
<polygon fill="black" stroke="black" points="476.679,-467.455 466.085,-467.629 474.475,-474.099 476.679,-467.455"/>
</g>
</g>
</svg>
