<?xml version="1.0" encoding="UTF-8" standalone="no"?>
<!DOCTYPE svg PUBLIC "-//W3C//DTD SVG 1.1//EN"
 "http://www.w3.org/Graphics/SVG/1.1/DTD/svg11.dtd">
<!-- Generated by graphviz version 2.30.1 (20180828.1746)
 -->
<!-- Title: %3 Pages: 1 -->
<svg width="1121pt" height="548pt"
 viewBox="0.00 0.00 1121.00 548.00" xmlns="http://www.w3.org/2000/svg" xmlns:xlink="http://www.w3.org/1999/xlink">
<g id="graph0" class="graph" transform="scale(1 1) rotate(0) translate(4 544)">
<title>%3</title>
<polygon fill="white" stroke="white" points="-4,5 -4,-544 1118,-544 1118,5 -4,5"/>
<!-- [root] aws_eip.ip&#45;hugo&#45;env (expand) -->
<g id="node1" class="node"><title>[root] aws_eip.ip&#45;hugo&#45;env (expand)</title>
<polygon fill="none" stroke="black" points="758.25,-396 627.75,-396 627.75,-360 758.25,-360 758.25,-396"/>
<text text-anchor="middle" x="693" y="-374.3" font-family="Times,serif" font-size="14.00">aws_eip.ip&#45;hugo&#45;env</text>
</g>
<!-- [root] aws_instance.hugo&#45;ec2&#45;instance (expand) -->
<g id="node2" class="node"><title>[root] aws_instance.hugo&#45;ec2&#45;instance (expand)</title>
<polygon fill="none" stroke="black" points="788.25,-324 597.75,-324 597.75,-288 788.25,-288 788.25,-324"/>
<text text-anchor="middle" x="693" y="-302.3" font-family="Times,serif" font-size="14.00">aws_instance.hugo&#45;ec2&#45;instance</text>
</g>
<!-- [root] aws_eip.ip&#45;hugo&#45;env (expand)&#45;&gt;[root] aws_instance.hugo&#45;ec2&#45;instance (expand) -->
<g id="edge1" class="edge"><title>[root] aws_eip.ip&#45;hugo&#45;env (expand)&#45;&gt;[root] aws_instance.hugo&#45;ec2&#45;instance (expand)</title>
<path fill="none" stroke="black" d="M693,-359.697C693,-351.983 693,-342.712 693,-334.112"/>
<polygon fill="black" stroke="black" points="696.5,-334.104 693,-324.104 689.5,-334.104 696.5,-334.104"/>
</g>
<!-- [root] aws_security_group.ingress&#45;all&#45;hugo (expand) -->
<g id="node6" class="node"><title>[root] aws_security_group.ingress&#45;all&#45;hugo (expand)</title>
<polygon fill="none" stroke="black" points="608.25,-252 391.75,-252 391.75,-216 608.25,-216 608.25,-252"/>
<text text-anchor="middle" x="500" y="-230.3" font-family="Times,serif" font-size="14.00">aws_security_group.ingress&#45;all&#45;hugo</text>
</g>
<!-- [root] aws_instance.hugo&#45;ec2&#45;instance (expand)&#45;&gt;[root] aws_security_group.ingress&#45;all&#45;hugo (expand) -->
<g id="edge2" class="edge"><title>[root] aws_instance.hugo&#45;ec2&#45;instance (expand)&#45;&gt;[root] aws_security_group.ingress&#45;all&#45;hugo (expand)</title>
<path fill="none" stroke="black" d="M645.787,-287.876C618.934,-278.137 585.12,-265.872 556.82,-255.608"/>
<polygon fill="black" stroke="black" points="557.654,-252.188 547.06,-252.068 555.267,-258.768 557.654,-252.188"/>
</g>
<!-- [root] aws_subnet.subnet&#45;uno (expand) -->
<g id="node7" class="node"><title>[root] aws_subnet.subnet&#45;uno (expand)</title>
<polygon fill="none" stroke="black" points="373.25,-252 230.75,-252 230.75,-216 373.25,-216 373.25,-252"/>
<text text-anchor="middle" x="302" y="-230.3" font-family="Times,serif" font-size="14.00">aws_subnet.subnet&#45;uno</text>
</g>
<!-- [root] aws_instance.hugo&#45;ec2&#45;instance (expand)&#45;&gt;[root] aws_subnet.subnet&#45;uno (expand) -->
<g id="edge3" class="edge"><title>[root] aws_instance.hugo&#45;ec2&#45;instance (expand)&#45;&gt;[root] aws_subnet.subnet&#45;uno (expand)</title>
<path fill="none" stroke="black" d="M597.54,-289.761C538.444,-280.084 460.764,-266.927 383.421,-252.237"/>
<polygon fill="black" stroke="black" points="383.979,-248.781 373.5,-250.344 382.667,-255.657 383.979,-248.781"/>
</g>
<!-- [root] var.ami_id -->
<g id="node11" class="node"><title>[root] var.ami_id</title>
<polygon fill="none" stroke="black" points="827,-252 757,-252 757,-216 833,-216 833,-246 827,-252"/>
<polyline fill="none" stroke="black" points="827,-252 827,-246 "/>
<polyline fill="none" stroke="black" points="833,-246 827,-246 "/>
<text text-anchor="middle" x="795" y="-230.3" font-family="Times,serif" font-size="14.00">var.ami_id</text>
</g>
<!-- [root] aws_instance.hugo&#45;ec2&#45;instance (expand)&#45;&gt;[root] var.ami_id -->
<g id="edge4" class="edge"><title>[root] aws_instance.hugo&#45;ec2&#45;instance (expand)&#45;&gt;[root] var.ami_id</title>
<path fill="none" stroke="black" d="M717.952,-287.876C731.042,-278.893 747.26,-267.763 761.436,-258.034"/>
<polygon fill="black" stroke="black" points="763.687,-260.734 769.952,-252.19 759.726,-254.962 763.687,-260.734"/>
</g>
<!-- [root] var.ami_key_pair_name -->
<g id="node12" class="node"><title>[root] var.ami_key_pair_name</title>
<polygon fill="none" stroke="black" points="994.25,-252 851.75,-252 851.75,-216 1000.25,-216 1000.25,-246 994.25,-252"/>
<polyline fill="none" stroke="black" points="994.25,-252 994.25,-246 "/>
<polyline fill="none" stroke="black" points="1000.25,-246 994.25,-246 "/>
<text text-anchor="middle" x="926" y="-230.3" font-family="Times,serif" font-size="14.00">var.ami_key_pair_name</text>
</g>
<!-- [root] aws_instance.hugo&#45;ec2&#45;instance (expand)&#45;&gt;[root] var.ami_key_pair_name -->
<g id="edge5" class="edge"><title>[root] aws_instance.hugo&#45;ec2&#45;instance (expand)&#45;&gt;[root] var.ami_key_pair_name</title>
<path fill="none" stroke="black" d="M749.7,-287.966C782.68,-278.057 824.432,-265.514 859.026,-255.121"/>
<polygon fill="black" stroke="black" points="860.475,-258.34 869.045,-252.111 858.461,-251.636 860.475,-258.34"/>
</g>
<!-- [root] var.ami_name -->
<g id="node13" class="node"><title>[root] var.ami_name</title>
<polygon fill="none" stroke="black" points="1107.25,-252 1018.75,-252 1018.75,-216 1113.25,-216 1113.25,-246 1107.25,-252"/>
<polyline fill="none" stroke="black" points="1107.25,-252 1107.25,-246 "/>
<polyline fill="none" stroke="black" points="1113.25,-246 1107.25,-246 "/>
<text text-anchor="middle" x="1066" y="-230.3" font-family="Times,serif" font-size="14.00">var.ami_name</text>
</g>
<!-- [root] aws_instance.hugo&#45;ec2&#45;instance (expand)&#45;&gt;[root] var.ami_name -->
<g id="edge6" class="edge"><title>[root] aws_instance.hugo&#45;ec2&#45;instance (expand)&#45;&gt;[root] var.ami_name</title>
<path fill="none" stroke="black" d="M788.325,-292.151C848.764,-283.268 928.702,-270.166 1008.32,-251.995"/>
<polygon fill="black" stroke="black" points="1009.58,-255.297 1018.53,-249.636 1008,-248.477 1009.58,-255.297"/>
</g>
<!-- [root] var.instance_type -->
<g id="node15" class="node"><title>[root] var.instance_type</title>
<polygon fill="none" stroke="black" points="733,-252 627,-252 627,-216 739,-216 739,-246 733,-252"/>
<polyline fill="none" stroke="black" points="733,-252 733,-246 "/>
<polyline fill="none" stroke="black" points="739,-246 733,-246 "/>
<text text-anchor="middle" x="683" y="-230.3" font-family="Times,serif" font-size="14.00">var.instance_type</text>
</g>
<!-- [root] aws_instance.hugo&#45;ec2&#45;instance (expand)&#45;&gt;[root] var.instance_type -->
<g id="edge7" class="edge"><title>[root] aws_instance.hugo&#45;ec2&#45;instance (expand)&#45;&gt;[root] var.instance_type</title>
<path fill="none" stroke="black" d="M690.528,-287.697C689.426,-279.983 688.102,-270.712 686.873,-262.112"/>
<polygon fill="black" stroke="black" points="690.323,-261.509 685.443,-252.104 683.393,-262.499 690.323,-261.509"/>
</g>
<!-- [root] aws_internet_gateway.hugo&#45;env&#45;gw (expand) -->
<g id="node3" class="node"><title>[root] aws_internet_gateway.hugo&#45;env&#45;gw (expand)</title>
<polygon fill="none" stroke="black" points="212.25,-252 -0.25,-252 -0.25,-216 212.25,-216 212.25,-252"/>
<text text-anchor="middle" x="106" y="-230.3" font-family="Times,serif" font-size="14.00">aws_internet_gateway.hugo&#45;env&#45;gw</text>
</g>
<!-- [root] aws_vpc.hugo&#45;env (expand) -->
<g id="node8" class="node"><title>[root] aws_vpc.hugo&#45;env (expand)</title>
<polygon fill="none" stroke="black" points="361.25,-180 242.75,-180 242.75,-144 361.25,-144 361.25,-180"/>
<text text-anchor="middle" x="302" y="-158.3" font-family="Times,serif" font-size="14.00">aws_vpc.hugo&#45;env</text>
</g>
<!-- [root] aws_internet_gateway.hugo&#45;env&#45;gw (expand)&#45;&gt;[root] aws_vpc.hugo&#45;env (expand) -->
<g id="edge8" class="edge"><title>[root] aws_internet_gateway.hugo&#45;env&#45;gw (expand)&#45;&gt;[root] aws_vpc.hugo&#45;env (expand)</title>
<path fill="none" stroke="black" d="M153.696,-215.966C181.082,-206.185 215.658,-193.836 244.534,-183.524"/>
<polygon fill="black" stroke="black" points="245.85,-186.77 254.09,-180.111 243.495,-180.178 245.85,-186.77"/>
</g>
<!-- [root] aws_route_table.route&#45;table&#45;hugo&#45;env (expand) -->
<g id="node4" class="node"><title>[root] aws_route_table.route&#45;table&#45;hugo&#45;env (expand)</title>
<polygon fill="none" stroke="black" points="240.25,-324 17.75,-324 17.75,-288 240.25,-288 240.25,-324"/>
<text text-anchor="middle" x="129" y="-302.3" font-family="Times,serif" font-size="14.00">aws_route_table.route&#45;table&#45;hugo&#45;env</text>
</g>
<!-- [root] aws_route_table.route&#45;table&#45;hugo&#45;env (expand)&#45;&gt;[root] aws_internet_gateway.hugo&#45;env&#45;gw (expand) -->
<g id="edge9" class="edge"><title>[root] aws_route_table.route&#45;table&#45;hugo&#45;env (expand)&#45;&gt;[root] aws_internet_gateway.hugo&#45;env&#45;gw (expand)</title>
<path fill="none" stroke="black" d="M123.315,-287.697C120.752,-279.898 117.667,-270.509 114.815,-261.829"/>
<polygon fill="black" stroke="black" points="118.067,-260.512 111.62,-252.104 111.416,-262.697 118.067,-260.512"/>
</g>
<!-- [root] aws_route_table_association.subnet&#45;association (expand) -->
<g id="node5" class="node"><title>[root] aws_route_table_association.subnet&#45;association (expand)</title>
<polygon fill="none" stroke="black" points="431.25,-396 156.75,-396 156.75,-360 431.25,-360 431.25,-396"/>
<text text-anchor="middle" x="294" y="-374.3" font-family="Times,serif" font-size="14.00">aws_route_table_association.subnet&#45;association</text>
</g>
<!-- [root] aws_route_table_association.subnet&#45;association (expand)&#45;&gt;[root] aws_route_table.route&#45;table&#45;hugo&#45;env (expand) -->
<g id="edge10" class="edge"><title>[root] aws_route_table_association.subnet&#45;association (expand)&#45;&gt;[root] aws_route_table.route&#45;table&#45;hugo&#45;env (expand)</title>
<path fill="none" stroke="black" d="M253.636,-359.876C230.98,-350.264 202.527,-338.193 178.53,-328.013"/>
<polygon fill="black" stroke="black" points="179.805,-324.752 169.232,-324.068 177.071,-331.196 179.805,-324.752"/>
</g>
<!-- [root] aws_route_table_association.subnet&#45;association (expand)&#45;&gt;[root] aws_subnet.subnet&#45;uno (expand) -->
<g id="edge11" class="edge"><title>[root] aws_route_table_association.subnet&#45;association (expand)&#45;&gt;[root] aws_subnet.subnet&#45;uno (expand)</title>
<path fill="none" stroke="black" d="M294.965,-359.871C296.328,-335.67 298.833,-291.211 300.457,-262.393"/>
<polygon fill="black" stroke="black" points="303.963,-262.37 301.032,-252.189 296.975,-261.977 303.963,-262.37"/>
</g>
<!-- [root] aws_security_group.ingress&#45;all&#45;hugo (expand)&#45;&gt;[root] aws_vpc.hugo&#45;env (expand) -->
<g id="edge12" class="edge"><title>[root] aws_security_group.ingress&#45;all&#45;hugo (expand)&#45;&gt;[root] aws_vpc.hugo&#45;env (expand)</title>
<path fill="none" stroke="black" d="M451.817,-215.966C424.152,-206.185 389.223,-193.836 360.052,-183.524"/>
<polygon fill="black" stroke="black" points="360.994,-180.144 350.399,-180.111 358.661,-186.744 360.994,-180.144"/>
</g>
<!-- [root] aws_subnet.subnet&#45;uno (expand)&#45;&gt;[root] aws_vpc.hugo&#45;env (expand) -->
<g id="edge13" class="edge"><title>[root] aws_subnet.subnet&#45;uno (expand)&#45;&gt;[root] aws_vpc.hugo&#45;env (expand)</title>
<path fill="none" stroke="black" d="M302,-215.697C302,-207.983 302,-198.712 302,-190.112"/>
<polygon fill="black" stroke="black" points="305.5,-190.104 302,-180.104 298.5,-190.104 305.5,-190.104"/>
</g>
<!-- [root] provider[&quot;registry.terraform.io/hashicorp/aws&quot;] -->
<g id="node9" class="node"><title>[root] provider[&quot;registry.terraform.io/hashicorp/aws&quot;]</title>
<polygon fill="none" stroke="black" points="302,-108 49.8471,-90 302,-72 554.153,-90 302,-108"/>
<text text-anchor="middle" x="302" y="-86.3" font-family="Times,serif" font-size="14.00">provider[&quot;registry.terraform.io/hashicorp/aws&quot;]</text>
</g>
<!-- [root] aws_vpc.hugo&#45;env (expand)&#45;&gt;[root] provider[&quot;registry.terraform.io/hashicorp/aws&quot;] -->
<g id="edge14" class="edge"><title>[root] aws_vpc.hugo&#45;env (expand)&#45;&gt;[root] provider[&quot;registry.terraform.io/hashicorp/aws&quot;]</title>
<path fill="none" stroke="black" d="M302,-143.697C302,-135.983 302,-126.712 302,-118.112"/>
<polygon fill="black" stroke="black" points="305.5,-118.104 302,-108.104 298.5,-118.104 305.5,-118.104"/>
</g>
<!-- [root] var.access_key -->
<g id="node10" class="node"><title>[root] var.access_key</title>
<polygon fill="none" stroke="black" points="228,-36 136,-36 136,-0 234,-0 234,-30 228,-36"/>
<polyline fill="none" stroke="black" points="228,-36 228,-30 "/>
<polyline fill="none" stroke="black" points="234,-30 228,-30 "/>
<text text-anchor="middle" x="185" y="-14.3" font-family="Times,serif" font-size="14.00">var.access_key</text>
</g>
<!-- [root] provider[&quot;registry.terraform.io/hashicorp/aws&quot;]&#45;&gt;[root] var.access_key -->
<g id="edge19" class="edge"><title>[root] provider[&quot;registry.terraform.io/hashicorp/aws&quot;]&#45;&gt;[root] var.access_key</title>
<path fill="none" stroke="black" d="M276.613,-73.811C260.817,-64.3604 240.218,-52.0364 222.554,-41.4685"/>
<polygon fill="black" stroke="black" points="224.004,-38.2574 213.626,-36.1267 220.411,-44.2644 224.004,-38.2574"/>
</g>
<!-- [root] var.aws_region -->
<g id="node14" class="node"><title>[root] var.aws_region</title>
<polygon fill="none" stroke="black" points="346,-36 252,-36 252,-0 352,-0 352,-30 346,-36"/>
<polyline fill="none" stroke="black" points="346,-36 346,-30 "/>
<polyline fill="none" stroke="black" points="352,-30 346,-30 "/>
<text text-anchor="middle" x="302" y="-14.3" font-family="Times,serif" font-size="14.00">var.aws_region</text>
</g>
<!-- [root] provider[&quot;registry.terraform.io/hashicorp/aws&quot;]&#45;&gt;[root] var.aws_region -->
<g id="edge20" class="edge"><title>[root] provider[&quot;registry.terraform.io/hashicorp/aws&quot;]&#45;&gt;[root] var.aws_region</title>
<path fill="none" stroke="black" d="M302,-71.6966C302,-63.9827 302,-54.7125 302,-46.1124"/>
<polygon fill="black" stroke="black" points="305.5,-46.1043 302,-36.1043 298.5,-46.1044 305.5,-46.1043"/>
</g>
<!-- [root] var.secret_key -->
<g id="node16" class="node"><title>[root] var.secret_key</title>
<polygon fill="none" stroke="black" points="459.25,-36 370.75,-36 370.75,-0 465.25,-0 465.25,-30 459.25,-36"/>
<polyline fill="none" stroke="black" points="459.25,-36 459.25,-30 "/>
<polyline fill="none" stroke="black" points="465.25,-30 459.25,-30 "/>
<text text-anchor="middle" x="418" y="-14.3" font-family="Times,serif" font-size="14.00">var.secret_key</text>
</g>
<!-- [root] provider[&quot;registry.terraform.io/hashicorp/aws&quot;]&#45;&gt;[root] var.secret_key -->
<g id="edge21" class="edge"><title>[root] provider[&quot;registry.terraform.io/hashicorp/aws&quot;]&#45;&gt;[root] var.secret_key</title>
<path fill="none" stroke="black" d="M327.457,-73.6382C343.131,-64.1793 363.495,-51.891 380.939,-41.3642"/>
<polygon fill="black" stroke="black" points="383.002,-44.2076 389.755,-36.0442 379.385,-38.2142 383.002,-44.2076"/>
</g>
<!-- [root] meta.count&#45;boundary (EachMode fixup) -->
<g id="node17" class="node"><title>[root] meta.count&#45;boundary (EachMode fixup)</title>
<ellipse fill="none" stroke="black" cx="291" cy="-450" rx="176.177" ry="18"/>
<text text-anchor="middle" x="291" y="-446.3" font-family="Times,serif" font-size="14.00">[root] meta.count&#45;boundary (EachMode fixup)</text>
</g>
<!-- [root] meta.count&#45;boundary (EachMode fixup)&#45;&gt;[root] aws_eip.ip&#45;hugo&#45;env (expand) -->
<g id="edge15" class="edge"><title>[root] meta.count&#45;boundary (EachMode fixup)&#45;&gt;[root] aws_eip.ip&#45;hugo&#45;env (expand)</title>
<path fill="none" stroke="black" d="M376.254,-434.155C447.867,-421.685 549.216,-404.037 617.834,-392.089"/>
<polygon fill="black" stroke="black" points="618.462,-395.532 627.713,-390.368 617.261,-388.636 618.462,-395.532"/>
</g>
<!-- [root] meta.count&#45;boundary (EachMode fixup)&#45;&gt;[root] aws_route_table_association.subnet&#45;association (expand) -->
<g id="edge16" class="edge"><title>[root] meta.count&#45;boundary (EachMode fixup)&#45;&gt;[root] aws_route_table_association.subnet&#45;association (expand)</title>
<path fill="none" stroke="black" d="M291.742,-431.697C292.072,-423.983 292.469,-414.712 292.838,-406.112"/>
<polygon fill="black" stroke="black" points="296.335,-406.245 293.267,-396.104 289.342,-405.945 296.335,-406.245"/>
</g>
<!-- [root] provider[&quot;registry.terraform.io/hashicorp/aws&quot;] (close) -->
<g id="node18" class="node"><title>[root] provider[&quot;registry.terraform.io/hashicorp/aws&quot;] (close)</title>
<ellipse fill="none" stroke="black" cx="713" cy="-450" rx="227.22" ry="18"/>
<text text-anchor="middle" x="713" y="-446.3" font-family="Times,serif" font-size="14.00">[root] provider[&quot;registry.terraform.io/hashicorp/aws&quot;] (close)</text>
</g>
<!-- [root] provider[&quot;registry.terraform.io/hashicorp/aws&quot;] (close)&#45;&gt;[root] aws_eip.ip&#45;hugo&#45;env (expand) -->
<g id="edge17" class="edge"><title>[root] provider[&quot;registry.terraform.io/hashicorp/aws&quot;] (close)&#45;&gt;[root] aws_eip.ip&#45;hugo&#45;env (expand)</title>
<path fill="none" stroke="black" d="M708.056,-431.697C705.828,-423.898 703.145,-414.509 700.665,-405.829"/>
<polygon fill="black" stroke="black" points="704,-404.758 697.887,-396.104 697.269,-406.681 704,-404.758"/>
</g>
<!-- [root] provider[&quot;registry.terraform.io/hashicorp/aws&quot;] (close)&#45;&gt;[root] aws_route_table_association.subnet&#45;association (expand) -->
<g id="edge18" class="edge"><title>[root] provider[&quot;registry.terraform.io/hashicorp/aws&quot;] (close)&#45;&gt;[root] aws_route_table_association.subnet&#45;association (expand)</title>
<path fill="none" stroke="black" d="M620.53,-433.552C557.262,-422.982 473.029,-408.909 405.963,-397.705"/>
<polygon fill="black" stroke="black" points="406.215,-394.199 395.775,-396.003 405.062,-401.103 406.215,-394.199"/>
</g>
<!-- [root] root -->
<g id="node19" class="node"><title>[root] root</title>
<ellipse fill="none" stroke="black" cx="502" cy="-522" rx="47.169" ry="18"/>
<text text-anchor="middle" x="502" y="-518.3" font-family="Times,serif" font-size="14.00">[root] root</text>
</g>
<!-- [root] root&#45;&gt;[root] meta.count&#45;boundary (EachMode fixup) -->
<g id="edge22" class="edge"><title>[root] root&#45;&gt;[root] meta.count&#45;boundary (EachMode fixup)</title>
<path fill="none" stroke="black" d="M467.63,-509.597C435.899,-499.071 388.101,-483.214 350.226,-470.648"/>
<polygon fill="black" stroke="black" points="350.922,-467.192 340.329,-467.365 348.718,-473.836 350.922,-467.192"/>
</g>
<!-- [root] root&#45;&gt;[root] provider[&quot;registry.terraform.io/hashicorp/aws&quot;] (close) -->
<g id="edge23" class="edge"><title>[root] root&#45;&gt;[root] provider[&quot;registry.terraform.io/hashicorp/aws&quot;] (close)</title>
<path fill="none" stroke="black" d="M536.37,-509.597C567.886,-499.142 615.254,-483.428 653.005,-470.904"/>
<polygon fill="black" stroke="black" points="654.488,-474.099 662.877,-467.629 652.283,-467.455 654.488,-474.099"/>
</g>
</g>
</svg>
