<?xml version="1.0" encoding="UTF-8" standalone="no"?>
<!DOCTYPE svg PUBLIC "-//W3C//DTD SVG 1.1//EN"
 "http://www.w3.org/Graphics/SVG/1.1/DTD/svg11.dtd">
<!-- Generated by graphviz version 2.30.1 (20180828.1746)
 -->
<!-- Title: %3 Pages: 1 -->
<svg width="1809pt" height="260pt"
 viewBox="0.00 0.00 1809.00 260.00" xmlns="http://www.w3.org/2000/svg" xmlns:xlink="http://www.w3.org/1999/xlink">
<g id="graph0" class="graph" transform="scale(1 1) rotate(0) translate(4 256)">
<title>%3</title>
<polygon fill="white" stroke="white" points="-4,5 -4,-256 1806,-256 1806,5 -4,5"/>
<!-- [root] aws_eip.eip1 (orphan) -->
<g id="node1" class="node"><title>[root] aws_eip.eip1 (orphan)</title>
<polygon fill="none" stroke="black" points="926,-108 838,-108 838,-72 926,-72 926,-108"/>
<text text-anchor="middle" x="882" y="-86.3" font-family="Times,serif" font-size="14.00">aws_eip.eip1</text>
</g>
<!-- [root] provider[&quot;registry.terraform.io/hashicorp/aws&quot;] -->
<g id="node12" class="node"><title>[root] provider[&quot;registry.terraform.io/hashicorp/aws&quot;]</title>
<polygon fill="none" stroke="black" points="882,-36 629.847,-18 882,-3.55271e-15 1134.15,-18 882,-36"/>
<text text-anchor="middle" x="882" y="-14.3" font-family="Times,serif" font-size="14.00">provider[&quot;registry.terraform.io/hashicorp/aws&quot;]</text>
</g>
<!-- [root] aws_eip.eip1 (orphan)&#45;&gt;[root] provider[&quot;registry.terraform.io/hashicorp/aws&quot;] -->
<g id="edge1" class="edge"><title>[root] aws_eip.eip1 (orphan)&#45;&gt;[root] provider[&quot;registry.terraform.io/hashicorp/aws&quot;]</title>
<path fill="none" stroke="black" d="M882,-71.6966C882,-63.9827 882,-54.7125 882,-46.1124"/>
<polygon fill="black" stroke="black" points="885.5,-46.1043 882,-36.1043 878.5,-46.1044 885.5,-46.1043"/>
</g>
<!-- [root] aws_instance.general&#45;purpose (orphan) -->
<g id="node2" class="node"><title>[root] aws_instance.general&#45;purpose (orphan)</title>
<polygon fill="none" stroke="black" points="1123.25,-108 944.75,-108 944.75,-72 1123.25,-72 1123.25,-108"/>
<text text-anchor="middle" x="1034" y="-86.3" font-family="Times,serif" font-size="14.00">aws_instance.general&#45;purpose</text>
</g>
<!-- [root] aws_instance.general&#45;purpose (orphan)&#45;&gt;[root] provider[&quot;registry.terraform.io/hashicorp/aws&quot;] -->
<g id="edge2" class="edge"><title>[root] aws_instance.general&#45;purpose (orphan)&#45;&gt;[root] provider[&quot;registry.terraform.io/hashicorp/aws&quot;]</title>
<path fill="none" stroke="black" d="M996.817,-71.8761C974.57,-61.6307 946.257,-48.5919 923.313,-38.0258"/>
<polygon fill="black" stroke="black" points="924.713,-34.8171 914.166,-33.8131 921.785,-41.1752 924.713,-34.8171"/>
</g>
<!-- [root] aws_instance.private&#45;instance (orphan) -->
<g id="node3" class="node"><title>[root] aws_instance.private&#45;instance (orphan)</title>
<polygon fill="none" stroke="black" points="1320.25,-108 1141.75,-108 1141.75,-72 1320.25,-72 1320.25,-108"/>
<text text-anchor="middle" x="1231" y="-86.3" font-family="Times,serif" font-size="14.00">aws_instance.private&#45;instance</text>
</g>
<!-- [root] aws_instance.private&#45;instance (orphan)&#45;&gt;[root] provider[&quot;registry.terraform.io/hashicorp/aws&quot;] -->
<g id="edge3" class="edge"><title>[root] aws_instance.private&#45;instance (orphan)&#45;&gt;[root] provider[&quot;registry.terraform.io/hashicorp/aws&quot;]</title>
<path fill="none" stroke="black" d="M1146.07,-71.9656C1087.57,-60.2314 1010.64,-44.801 954.912,-33.6241"/>
<polygon fill="black" stroke="black" points="955.256,-30.1235 944.763,-31.5885 953.879,-36.9868 955.256,-30.1235"/>
</g>
<!-- [root] aws_internet_gateway.this (orphan) -->
<g id="node4" class="node"><title>[root] aws_internet_gateway.this (orphan)</title>
<polygon fill="none" stroke="black" points="1499.25,-108 1338.75,-108 1338.75,-72 1499.25,-72 1499.25,-108"/>
<text text-anchor="middle" x="1419" y="-86.3" font-family="Times,serif" font-size="14.00">aws_internet_gateway.this</text>
</g>
<!-- [root] aws_internet_gateway.this (orphan)&#45;&gt;[root] provider[&quot;registry.terraform.io/hashicorp/aws&quot;] -->
<g id="edge4" class="edge"><title>[root] aws_internet_gateway.this (orphan)&#45;&gt;[root] provider[&quot;registry.terraform.io/hashicorp/aws&quot;]</title>
<path fill="none" stroke="black" d="M1338.58,-73.5256C1335.35,-72.9936 1332.14,-72.4827 1329,-72 1214.53,-54.424 1082.8,-39.4363 992.147,-29.93"/>
<polygon fill="black" stroke="black" points="992.438,-26.4415 982.129,-28.8842 991.711,-33.4036 992.438,-26.4415"/>
</g>
<!-- [root] aws_nat_gateway.this (orphan) -->
<g id="node5" class="node"><title>[root] aws_nat_gateway.this (orphan)</title>
<polygon fill="none" stroke="black" points="1654,-108 1518,-108 1518,-72 1654,-72 1654,-108"/>
<text text-anchor="middle" x="1586" y="-86.3" font-family="Times,serif" font-size="14.00">aws_nat_gateway.this</text>
</g>
<!-- [root] aws_nat_gateway.this (orphan)&#45;&gt;[root] provider[&quot;registry.terraform.io/hashicorp/aws&quot;] -->
<g id="edge5" class="edge"><title>[root] aws_nat_gateway.this (orphan)&#45;&gt;[root] provider[&quot;registry.terraform.io/hashicorp/aws&quot;]</title>
<path fill="none" stroke="black" d="M1517.61,-73.5671C1514.37,-73.0016 1511.15,-72.4749 1508,-72 1347.6,-47.8353 1162.29,-33.8599 1035.15,-26.3906"/>
<polygon fill="black" stroke="black" points="1035.14,-22.884 1024.95,-25.798 1034.73,-29.8722 1035.14,-22.884"/>
</g>
<!-- [root] aws_route_table.igw (orphan) -->
<g id="node6" class="node"><title>[root] aws_route_table.igw (orphan)</title>
<polygon fill="none" stroke="black" points="1801.25,-108 1672.75,-108 1672.75,-72 1801.25,-72 1801.25,-108"/>
<text text-anchor="middle" x="1737" y="-86.3" font-family="Times,serif" font-size="14.00">aws_route_table.igw</text>
</g>
<!-- [root] aws_route_table.igw (orphan)&#45;&gt;[root] provider[&quot;registry.terraform.io/hashicorp/aws&quot;] -->
<g id="edge6" class="edge"><title>[root] aws_route_table.igw (orphan)&#45;&gt;[root] provider[&quot;registry.terraform.io/hashicorp/aws&quot;]</title>
<path fill="none" stroke="black" d="M1672.54,-73.5603C1669.32,-72.9881 1666.13,-72.4627 1663,-72 1462.88,-42.412 1231.42,-29.3134 1072.74,-23.5319"/>
<polygon fill="black" stroke="black" points="1072.51,-20.0216 1062.39,-23.1616 1072.26,-27.0172 1072.51,-20.0216"/>
</g>
<!-- [root] aws_route_table_association.public1&#45;igw (orphan) -->
<g id="node7" class="node"><title>[root] aws_route_table_association.public1&#45;igw (orphan)</title>
<polygon fill="none" stroke="black" points="240.25,-108 -0.25,-108 -0.25,-72 240.25,-72 240.25,-108"/>
<text text-anchor="middle" x="120" y="-86.3" font-family="Times,serif" font-size="14.00">aws_route_table_association.public1&#45;igw</text>
</g>
<!-- [root] aws_route_table_association.public1&#45;igw (orphan)&#45;&gt;[root] provider[&quot;registry.terraform.io/hashicorp/aws&quot;] -->
<g id="edge7" class="edge"><title>[root] aws_route_table_association.public1&#45;igw (orphan)&#45;&gt;[root] provider[&quot;registry.terraform.io/hashicorp/aws&quot;]</title>
<path fill="none" stroke="black" d="M240.487,-72.9383C243.352,-72.6157 246.193,-72.3023 249,-72 422.21,-53.3462 622.689,-37.5325 750.827,-28.1569"/>
<polygon fill="black" stroke="black" points="751.357,-31.6276 761.076,-27.4094 750.848,-24.6461 751.357,-31.6276"/>
</g>
<!-- [root] aws_security_group.ssh_all (orphan) -->
<g id="node8" class="node"><title>[root] aws_security_group.ssh_all (orphan)</title>
<polygon fill="none" stroke="black" points="425.25,-108 258.75,-108 258.75,-72 425.25,-72 425.25,-108"/>
<text text-anchor="middle" x="342" y="-86.3" font-family="Times,serif" font-size="14.00">aws_security_group.ssh_all</text>
</g>
<!-- [root] aws_security_group.ssh_all (orphan)&#45;&gt;[root] provider[&quot;registry.terraform.io/hashicorp/aws&quot;] -->
<g id="edge8" class="edge"><title>[root] aws_security_group.ssh_all (orphan)&#45;&gt;[root] provider[&quot;registry.terraform.io/hashicorp/aws&quot;]</title>
<path fill="none" stroke="black" d="M425.61,-73.4606C428.778,-72.9531 431.916,-72.4642 435,-72 549.893,-54.7051 682.103,-39.6224 772.763,-30.0158"/>
<polygon fill="black" stroke="black" points="773.203,-33.4889 782.781,-28.9587 772.468,-26.5275 773.203,-33.4889"/>
</g>
<!-- [root] aws_subnet.private2 (orphan) -->
<g id="node9" class="node"><title>[root] aws_subnet.private2 (orphan)</title>
<polygon fill="none" stroke="black" points="572,-108 444,-108 444,-72 572,-72 572,-108"/>
<text text-anchor="middle" x="508" y="-86.3" font-family="Times,serif" font-size="14.00">aws_subnet.private2</text>
</g>
<!-- [root] aws_subnet.private2 (orphan)&#45;&gt;[root] provider[&quot;registry.terraform.io/hashicorp/aws&quot;] -->
<g id="edge9" class="edge"><title>[root] aws_subnet.private2 (orphan)&#45;&gt;[root] provider[&quot;registry.terraform.io/hashicorp/aws&quot;]</title>
<path fill="none" stroke="black" d="M572.051,-73.876C575.073,-73.2278 578.068,-72.5991 581,-72 654.252,-57.0331 738.056,-42.4855 798.604,-32.43"/>
<polygon fill="black" stroke="black" points="799.199,-35.8791 808.494,-30.7931 798.056,-28.9731 799.199,-35.8791"/>
</g>
<!-- [root] aws_subnet.public1 (orphan) -->
<g id="node10" class="node"><title>[root] aws_subnet.public1 (orphan)</title>
<polygon fill="none" stroke="black" points="714,-108 590,-108 590,-72 714,-72 714,-108"/>
<text text-anchor="middle" x="652" y="-86.3" font-family="Times,serif" font-size="14.00">aws_subnet.public1</text>
</g>
<!-- [root] aws_subnet.public1 (orphan)&#45;&gt;[root] provider[&quot;registry.terraform.io/hashicorp/aws&quot;] -->
<g id="edge10" class="edge"><title>[root] aws_subnet.public1 (orphan)&#45;&gt;[root] provider[&quot;registry.terraform.io/hashicorp/aws&quot;]</title>
<path fill="none" stroke="black" d="M707.97,-71.9656C744.068,-60.9792 790.813,-46.7525 826.765,-35.8105"/>
<polygon fill="black" stroke="black" points="828.054,-39.0769 836.602,-32.8168 826.016,-32.3802 828.054,-39.0769"/>
</g>
<!-- [root] aws_vpc.this (orphan) -->
<g id="node11" class="node"><title>[root] aws_vpc.this (orphan)</title>
<polygon fill="none" stroke="black" points="819.25,-108 732.75,-108 732.75,-72 819.25,-72 819.25,-108"/>
<text text-anchor="middle" x="776" y="-86.3" font-family="Times,serif" font-size="14.00">aws_vpc.this</text>
</g>
<!-- [root] aws_vpc.this (orphan)&#45;&gt;[root] provider[&quot;registry.terraform.io/hashicorp/aws&quot;] -->
<g id="edge11" class="edge"><title>[root] aws_vpc.this (orphan)&#45;&gt;[root] provider[&quot;registry.terraform.io/hashicorp/aws&quot;]</title>
<path fill="none" stroke="black" d="M801.931,-71.8761C816.379,-62.3346 834.496,-50.3704 849.841,-40.2369"/>
<polygon fill="black" stroke="black" points="852.091,-42.9455 858.507,-34.5142 848.234,-37.1043 852.091,-42.9455"/>
</g>
<!-- [root] meta.count&#45;boundary (EachMode fixup) -->
<g id="node13" class="node"><title>[root] meta.count&#45;boundary (EachMode fixup)</title>
<ellipse fill="none" stroke="black" cx="714" cy="-162" rx="176.177" ry="18"/>
<text text-anchor="middle" x="714" y="-158.3" font-family="Times,serif" font-size="14.00">[root] meta.count&#45;boundary (EachMode fixup)</text>
</g>
<!-- [root] meta.count&#45;boundary (EachMode fixup)&#45;&gt;[root] aws_eip.eip1 (orphan) -->
<g id="edge12" class="edge"><title>[root] meta.count&#45;boundary (EachMode fixup)&#45;&gt;[root] aws_eip.eip1 (orphan)</title>
<path fill="none" stroke="black" d="M753.814,-144.411C777.13,-134.696 806.797,-122.335 831.717,-111.951"/>
<polygon fill="black" stroke="black" points="833.127,-115.155 841.012,-108.078 830.435,-108.694 833.127,-115.155"/>
</g>
<!-- [root] meta.count&#45;boundary (EachMode fixup)&#45;&gt;[root] aws_instance.general&#45;purpose (orphan) -->
<g id="edge13" class="edge"><title>[root] meta.count&#45;boundary (EachMode fixup)&#45;&gt;[root] aws_instance.general&#45;purpose (orphan)</title>
<path fill="none" stroke="black" d="M785.018,-145.465C832.576,-135.062 895.512,-121.294 946.208,-110.204"/>
<polygon fill="black" stroke="black" points="947.155,-113.58 956.176,-108.024 945.659,-106.742 947.155,-113.58"/>
</g>
<!-- [root] meta.count&#45;boundary (EachMode fixup)&#45;&gt;[root] aws_instance.private&#45;instance (orphan) -->
<g id="edge14" class="edge"><title>[root] meta.count&#45;boundary (EachMode fixup)&#45;&gt;[root] aws_instance.private&#45;instance (orphan)</title>
<path fill="none" stroke="black" d="M826.398,-148.106C908.182,-138.404 1021.83,-124.265 1131.77,-107.996"/>
<polygon fill="black" stroke="black" points="1132.34,-111.45 1141.72,-106.517 1131.31,-104.527 1132.34,-111.45"/>
</g>
<!-- [root] meta.count&#45;boundary (EachMode fixup)&#45;&gt;[root] aws_internet_gateway.this (orphan) -->
<g id="edge15" class="edge"><title>[root] meta.count&#45;boundary (EachMode fixup)&#45;&gt;[root] aws_internet_gateway.this (orphan)</title>
<path fill="none" stroke="black" d="M839.804,-149.374C859.934,-147.551 880.538,-145.706 900,-144 1087.35,-127.578 1137.7,-133.576 1328.51,-107.976"/>
<polygon fill="black" stroke="black" points="1329.16,-111.421 1338.6,-106.612 1328.22,-104.485 1329.16,-111.421"/>
</g>
<!-- [root] meta.count&#45;boundary (EachMode fixup)&#45;&gt;[root] aws_nat_gateway.this (orphan) -->
<g id="edge16" class="edge"><title>[root] meta.count&#45;boundary (EachMode fixup)&#45;&gt;[root] aws_nat_gateway.this (orphan)</title>
<path fill="none" stroke="black" d="M837.766,-149.131C858.534,-147.299 879.872,-145.515 900,-144 1166.64,-123.926 1238.1,-144.421 1507.54,-107.912"/>
<polygon fill="black" stroke="black" points="1508.19,-111.356 1517.62,-106.532 1507.24,-104.421 1508.19,-111.356"/>
</g>
<!-- [root] meta.count&#45;boundary (EachMode fixup)&#45;&gt;[root] aws_route_table.igw (orphan) -->
<g id="edge17" class="edge"><title>[root] meta.count&#45;boundary (EachMode fixup)&#45;&gt;[root] aws_route_table.igw (orphan)</title>
<path fill="none" stroke="black" d="M836.501,-149.032C857.663,-147.185 879.459,-145.423 900,-144 1235.37,-120.774 1324.93,-153.538 1662.49,-107.893"/>
<polygon fill="black" stroke="black" points="1663.12,-111.34 1672.55,-106.519 1662.17,-104.404 1663.12,-111.34"/>
</g>
<!-- [root] meta.count&#45;boundary (EachMode fixup)&#45;&gt;[root] aws_route_table_association.public1&#45;igw (orphan) -->
<g id="edge18" class="edge"><title>[root] meta.count&#45;boundary (EachMode fixup)&#45;&gt;[root] aws_route_table_association.public1&#45;igw (orphan)</title>
<path fill="none" stroke="black" d="M598.321,-148.385C506.68,-138.258 375.108,-123.423 250.6,-108.186"/>
<polygon fill="black" stroke="black" points="250.852,-104.691 240.501,-106.948 250,-111.639 250.852,-104.691"/>
</g>
<!-- [root] meta.count&#45;boundary (EachMode fixup)&#45;&gt;[root] aws_security_group.ssh_all (orphan) -->
<g id="edge19" class="edge"><title>[root] meta.count&#45;boundary (EachMode fixup)&#45;&gt;[root] aws_security_group.ssh_all (orphan)</title>
<path fill="none" stroke="black" d="M633.74,-145.897C575.47,-134.932 496.467,-120.066 435.37,-108.57"/>
<polygon fill="black" stroke="black" points="435.814,-105.092 425.339,-106.682 434.52,-111.971 435.814,-105.092"/>
</g>
<!-- [root] meta.count&#45;boundary (EachMode fixup)&#45;&gt;[root] aws_subnet.private2 (orphan) -->
<g id="edge20" class="edge"><title>[root] meta.count&#45;boundary (EachMode fixup)&#45;&gt;[root] aws_subnet.private2 (orphan)</title>
<path fill="none" stroke="black" d="M665.962,-144.676C636.782,-134.761 599.279,-122.017 568.138,-111.435"/>
<polygon fill="black" stroke="black" points="568.864,-107.985 558.27,-108.082 566.612,-114.613 568.864,-107.985"/>
</g>
<!-- [root] meta.count&#45;boundary (EachMode fixup)&#45;&gt;[root] aws_subnet.public1 (orphan) -->
<g id="edge21" class="edge"><title>[root] meta.count&#45;boundary (EachMode fixup)&#45;&gt;[root] aws_subnet.public1 (orphan)</title>
<path fill="none" stroke="black" d="M698.992,-144.055C691.488,-135.583 682.263,-125.168 673.979,-115.815"/>
<polygon fill="black" stroke="black" points="676.551,-113.441 667.301,-108.275 671.311,-118.082 676.551,-113.441"/>
</g>
<!-- [root] meta.count&#45;boundary (EachMode fixup)&#45;&gt;[root] aws_vpc.this (orphan) -->
<g id="edge22" class="edge"><title>[root] meta.count&#45;boundary (EachMode fixup)&#45;&gt;[root] aws_vpc.this (orphan)</title>
<path fill="none" stroke="black" d="M729.008,-144.055C736.512,-135.583 745.737,-125.168 754.021,-115.815"/>
<polygon fill="black" stroke="black" points="756.689,-118.082 760.699,-108.275 751.449,-113.441 756.689,-118.082"/>
</g>
<!-- [root] provider[&quot;registry.terraform.io/hashicorp/aws&quot;] (close) -->
<g id="node14" class="node"><title>[root] provider[&quot;registry.terraform.io/hashicorp/aws&quot;] (close)</title>
<ellipse fill="none" stroke="black" cx="1136" cy="-162" rx="227.22" ry="18"/>
<text text-anchor="middle" x="1136" y="-158.3" font-family="Times,serif" font-size="14.00">[root] provider[&quot;registry.terraform.io/hashicorp/aws&quot;] (close)</text>
</g>
<!-- [root] provider[&quot;registry.terraform.io/hashicorp/aws&quot;] (close)&#45;&gt;[root] aws_eip.eip1 (orphan) -->
<g id="edge23" class="edge"><title>[root] provider[&quot;registry.terraform.io/hashicorp/aws&quot;] (close)&#45;&gt;[root] aws_eip.eip1 (orphan)</title>
<path fill="none" stroke="black" d="M1070.58,-144.678C1033.55,-135.221 986.183,-122.768 935.941,-108.208"/>
<polygon fill="black" stroke="black" points="936.773,-104.805 926.193,-105.367 934.814,-111.525 936.773,-104.805"/>
</g>
<!-- [root] provider[&quot;registry.terraform.io/hashicorp/aws&quot;] (close)&#45;&gt;[root] aws_instance.general&#45;purpose (orphan) -->
<g id="edge24" class="edge"><title>[root] provider[&quot;registry.terraform.io/hashicorp/aws&quot;] (close)&#45;&gt;[root] aws_instance.general&#45;purpose (orphan)</title>
<path fill="none" stroke="black" d="M1111.31,-144.055C1098.13,-135.008 1081.71,-123.744 1067.41,-113.926"/>
<polygon fill="black" stroke="black" points="1069.04,-110.804 1058.82,-108.032 1065.08,-116.576 1069.04,-110.804"/>
</g>
<!-- [root] provider[&quot;registry.terraform.io/hashicorp/aws&quot;] (close)&#45;&gt;[root] aws_instance.private&#45;instance (orphan) -->
<g id="edge25" class="edge"><title>[root] provider[&quot;registry.terraform.io/hashicorp/aws&quot;] (close)&#45;&gt;[root] aws_instance.private&#45;instance (orphan)</title>
<path fill="none" stroke="black" d="M1159,-144.055C1171.16,-135.093 1186.27,-123.957 1199.51,-114.204"/>
<polygon fill="black" stroke="black" points="1201.91,-116.781 1207.89,-108.032 1197.76,-111.146 1201.91,-116.781"/>
</g>
<!-- [root] provider[&quot;registry.terraform.io/hashicorp/aws&quot;] (close)&#45;&gt;[root] aws_internet_gateway.this (orphan) -->
<g id="edge26" class="edge"><title>[root] provider[&quot;registry.terraform.io/hashicorp/aws&quot;] (close)&#45;&gt;[root] aws_internet_gateway.this (orphan)</title>
<path fill="none" stroke="black" d="M1201.64,-144.765C1243.08,-134.514 1296.85,-121.214 1340.54,-110.408"/>
<polygon fill="black" stroke="black" points="1341.4,-113.8 1350.27,-108.001 1339.72,-107.004 1341.4,-113.8"/>
</g>
<!-- [root] provider[&quot;registry.terraform.io/hashicorp/aws&quot;] (close)&#45;&gt;[root] aws_nat_gateway.this (orphan) -->
<g id="edge27" class="edge"><title>[root] provider[&quot;registry.terraform.io/hashicorp/aws&quot;] (close)&#45;&gt;[root] aws_nat_gateway.this (orphan)</title>
<path fill="none" stroke="black" d="M1253.22,-146.531C1326.63,-136.918 1423.09,-123.281 1508,-108 1508.1,-107.982 1508.2,-107.963 1508.31,-107.945"/>
<polygon fill="black" stroke="black" points="1508.81,-111.411 1517.99,-106.128 1507.52,-104.531 1508.81,-111.411"/>
</g>
<!-- [root] provider[&quot;registry.terraform.io/hashicorp/aws&quot;] (close)&#45;&gt;[root] aws_route_table.igw (orphan) -->
<g id="edge28" class="edge"><title>[root] provider[&quot;registry.terraform.io/hashicorp/aws&quot;] (close)&#45;&gt;[root] aws_route_table.igw (orphan)</title>
<path fill="none" stroke="black" d="M1301.97,-149.68C1403.44,-141.466 1535.96,-128.438 1662.63,-107.933"/>
<polygon fill="black" stroke="black" points="1663.22,-111.384 1672.52,-106.315 1662.09,-104.476 1663.22,-111.384"/>
</g>
<!-- [root] provider[&quot;registry.terraform.io/hashicorp/aws&quot;] (close)&#45;&gt;[root] aws_route_table_association.public1&#45;igw (orphan) -->
<g id="edge29" class="edge"><title>[root] provider[&quot;registry.terraform.io/hashicorp/aws&quot;] (close)&#45;&gt;[root] aws_route_table_association.public1&#45;igw (orphan)</title>
<path fill="none" stroke="black" d="M976.03,-149.169C950.278,-147.367 923.907,-145.583 899,-144 613.635,-125.864 538.821,-134.707 250.813,-108.13"/>
<polygon fill="black" stroke="black" points="250.758,-104.61 240.477,-107.169 250.11,-111.58 250.758,-104.61"/>
</g>
<!-- [root] provider[&quot;registry.terraform.io/hashicorp/aws&quot;] (close)&#45;&gt;[root] aws_security_group.ssh_all (orphan) -->
<g id="edge30" class="edge"><title>[root] provider[&quot;registry.terraform.io/hashicorp/aws&quot;] (close)&#45;&gt;[root] aws_security_group.ssh_all (orphan)</title>
<path fill="none" stroke="black" d="M974.839,-149.246C788.968,-135.629 501.446,-114.361 435.668,-107.809"/>
<polygon fill="black" stroke="black" points="435.659,-104.287 425.336,-106.672 434.893,-111.245 435.659,-104.287"/>
</g>
<!-- [root] provider[&quot;registry.terraform.io/hashicorp/aws&quot;] (close)&#45;&gt;[root] aws_subnet.private2 (orphan) -->
<g id="edge31" class="edge"><title>[root] provider[&quot;registry.terraform.io/hashicorp/aws&quot;] (close)&#45;&gt;[root] aws_subnet.private2 (orphan)</title>
<path fill="none" stroke="black" d="M982.868,-148.686C851.128,-137.685 670.046,-121.488 582.361,-108.068"/>
<polygon fill="black" stroke="black" points="582.818,-104.597 572.394,-106.488 581.722,-111.511 582.818,-104.597"/>
</g>
<!-- [root] provider[&quot;registry.terraform.io/hashicorp/aws&quot;] (close)&#45;&gt;[root] aws_subnet.public1 (orphan) -->
<g id="edge32" class="edge"><title>[root] provider[&quot;registry.terraform.io/hashicorp/aws&quot;] (close)&#45;&gt;[root] aws_subnet.public1 (orphan)</title>
<path fill="none" stroke="black" d="M1001.52,-147.437C923.183,-138.651 822.386,-125.832 724.348,-108.146"/>
<polygon fill="black" stroke="black" points="724.723,-104.657 714.258,-106.307 723.468,-111.543 724.723,-104.657"/>
</g>
<!-- [root] provider[&quot;registry.terraform.io/hashicorp/aws&quot;] (close)&#45;&gt;[root] aws_vpc.this (orphan) -->
<g id="edge33" class="edge"><title>[root] provider[&quot;registry.terraform.io/hashicorp/aws&quot;] (close)&#45;&gt;[root] aws_vpc.this (orphan)</title>
<path fill="none" stroke="black" d="M1027.97,-146.118C971.454,-137.433 901.051,-125.208 829.62,-107.962"/>
<polygon fill="black" stroke="black" points="830.08,-104.472 819.535,-105.495 828.417,-111.271 830.08,-104.472"/>
</g>
<!-- [root] root -->
<g id="node15" class="node"><title>[root] root</title>
<ellipse fill="none" stroke="black" cx="925" cy="-234" rx="47.169" ry="18"/>
<text text-anchor="middle" x="925" y="-230.3" font-family="Times,serif" font-size="14.00">[root] root</text>
</g>
<!-- [root] root&#45;&gt;[root] meta.count&#45;boundary (EachMode fixup) -->
<g id="edge34" class="edge"><title>[root] root&#45;&gt;[root] meta.count&#45;boundary (EachMode fixup)</title>
<path fill="none" stroke="black" d="M890.63,-221.597C858.899,-211.071 811.101,-195.214 773.226,-182.648"/>
<polygon fill="black" stroke="black" points="773.922,-179.192 763.329,-179.365 771.718,-185.836 773.922,-179.192"/>
</g>
<!-- [root] root&#45;&gt;[root] provider[&quot;registry.terraform.io/hashicorp/aws&quot;] (close) -->
<g id="edge35" class="edge"><title>[root] root&#45;&gt;[root] provider[&quot;registry.terraform.io/hashicorp/aws&quot;] (close)</title>
<path fill="none" stroke="black" d="M959.37,-221.597C990.886,-211.142 1038.25,-195.428 1076,-182.904"/>
<polygon fill="black" stroke="black" points="1077.49,-186.099 1085.88,-179.629 1075.28,-179.455 1077.49,-186.099"/>
</g>
</g>
</svg>
